<svg xmlns="http://www.w3.org/2000/svg" viewBox="0 0 366.6 366.6"><style type="text/css">  
	.st0{fill:#35EEDF;}
	.st1{fill:#B3F4ED;}
	.st2{fill:#19C7F7;}
	.st3{fill:#9595F4;}
	.st4{fill:#7CF7EB;}
</style><polygon class="st0" points="7.3 366.6 230.8 262.5 109.3 142.1 "/><circle class="st1" cx="139.5" cy="232.5" r="27.1"/><path class="st1" d="M64.8 240.1c7.5 0.4 15.2-2.2 20.9-8 10.5-10.6 10.5-27.5 0.1-38.1L64.8 240.1z"/><path class="st1" d="M35 338c-5.3 5.4-7.9 12.4-7.8 19.4l44.8-20.9C61.2 327.3 45.1 327.8 35 338z"/><path class="st1" d="M142.8 283.1c-6.4 6.5-8.9 15.4-7.4 23.8l47.5-22.1c-0.5-0.6-1.1-1.3-1.7-1.8C170.6 272.4 153.4 272.5 142.8 283.1z"/><circle class="st1" cx="77.2" cy="286.5" r="27.1"/><circle class="st0" cx="135" cy="86.7" r="18.5"/><circle class="st2" cx="276.5" cy="235.6" r="18.5"/><circle class="st0" cx="311" cy="140.6" r="18.5"/><circle class="st3" cx="176.1" cy="18.5" r="18.5"/><circle class="st3" cx="228.3" cy="181.4" r="18.5"/><circle class="st2" cx="239.5" cy="74.7" r="18.5"/><circle class="st2" cx="334.4" cy="83.2" r="18.5"/><path class="st4" d="M146.2 140.6c-3.3 0-6-3.1-6-7s2.7-7 6-7c22.5 0 40.7-21.1 40.7-47.1 0-33.7 23.7-61.1 52.8-61.1 29.1 0 52.8 27.4 52.8 61.1 0 3.9-2.7 7-6 7 -3.3 0-6-3.1-6-7 0-26-18.3-47.1-40.7-47.1 -22.5 0-40.7 21.1-40.7 47.1C199 113.2 175.3 140.6 146.2 140.6z"/><path class="st4" d="M313.1 199.4c-24.8 0-44.9-18.7-44.9-41.7 0-16.3-14.3-29.6-31.9-29.6 -17.6 0-31.9 13.3-31.9 29.6 0 3.3-2.9 6-6.5 6 -3.6 0-6.5-2.7-6.5-6 0-23 20.2-41.7 44.9-41.7s44.9 18.7 44.9 41.7c0 16.3 14.3 29.6 31.9 29.6S345 174 345 157.7c0-3.3 2.9-6 6.5-6 3.6 0 6.5 2.7 6.5 6C358 180.7 337.8 199.4 313.1 199.4z"/></svg>